<?xml version="1.0" standalone="no"?>
<!DOCTYPE svg PUBLIC "-//W3C//DTD SVG 20010904//EN"
 "http://www.w3.org/TR/2001/REC-SVG-20010904/DTD/svg10.dtd">
<svg version="1.0" xmlns="http://www.w3.org/2000/svg"
 width="499.000000pt" height="499.000000pt" viewBox="0 0 499.000000 499.000000"
 preserveAspectRatio="xMidYMid meet">

<g transform="translate(0.000000,499.000000) scale(0.100000,-0.100000)"
fill="#000000" stroke="none">
<path d="M2413 4493 c-57 -57 -103 -106 -103 -108 0 -3 8 -5 18 -5 9 0 55 39
101 85 46 47 87 85 90 85 4 0 44 -38 91 -85 61 -62 91 -85 110 -85 21 0 10 15
-85 110 -60 61 -112 109 -115 108 -3 0 -51 -48 -107 -105z"/>
<path d="M2450 4445 l-64 -65 39 0 c29 0 46 7 67 27 l28 27 28 -27 c21 -20 38
-27 67 -27 l39 0 -64 65 c-35 36 -67 65 -70 65 -3 0 -35 -29 -70 -65z"/>
<path d="M1397 4342 c-15 -17 -17 -53 -17 -345 0 -312 1 -327 19 -337 13 -7
383 -10 1129 -10 1020 0 1111 1 1123 17 11 13 15 78 17 307 1 160 0 305 -3
323 -12 67 49 63 -861 63 -548 0 -823 -3 -819 -10 3 -5 -1 -10 -9 -10 -8 0
-17 4 -20 9 -4 5 -125 10 -274 11 -250 1 -269 -1 -285 -18z m2233 -102 c3 -47
3 -191 0 -320 l-5 -235 -964 -3 c-729 -1 -967 -5 -972 -14 -6 -9 -11 -9 -21 0
-9 7 -62 12 -134 14 l-119 3 0 320 0 320 300 5 c165 3 662 3 1105 0 l805 -5 5
-85z"/>
<path d="M1680 4235 c0 -2 13 -19 29 -37 l29 -33 -44 -110 c-25 -61 -46 -117
-47 -125 -7 -34 -42 -88 -90 -137 -28 -29 -47 -53 -41 -53 5 0 15 5 22 12 9 9
12 9 12 -3 0 -12 2 -12 10 1 6 10 10 11 10 3 0 -17 62 -17 78 -1 9 9 12 9 12
0 0 -9 37 -12 136 -12 189 0 201 6 257 139 26 59 26 65 12 87 -8 13 -20 24
-26 24 -6 0 -7 5 -4 10 3 6 14 10 24 10 23 0 61 30 65 50 2 8 12 35 24 60 l21
45 -25 26 c-14 15 -33 26 -42 24 -9 -1 -11 0 -4 2 44 15 -15 22 -203 22 -118
1 -215 -1 -215 -4z m447 -81 c-3 -3 -12 -4 -19 -1 -8 3 -5 6 6 6 11 1 17 -2
13 -5z m-143 -36 c-20 -65 -33 -78 -79 -78 -25 0 -45 3 -45 7 0 4 7 27 16 50
17 43 17 43 66 43 47 0 49 -1 42 -22z m46 -158 c0 -5 -4 -10 -10 -10 -5 0 -10
5 -10 10 0 6 5 10 10 10 6 0 10 -4 10 -10z m-130 -60 c-11 -28 -20 -53 -20
-55 0 -3 -22 -5 -50 -5 -27 0 -50 4 -50 9 0 5 9 30 20 55 19 46 19 46 69 46
l51 0 -20 -50z m135 20 c3 -5 1 -10 -4 -10 -6 0 -11 5 -11 10 0 6 2 10 4 10 3
0 8 -4 11 -10z m-410 -160 c3 -5 1 -10 -4 -10 -6 0 -11 5 -11 10 0 6 2 10 4
10 3 0 8 -4 11 -10z"/>
<path d="M2364 4206 c14 -19 26 -37 26 -40 0 -3 -29 -80 -65 -171 -36 -91 -63
-174 -60 -183 3 -9 16 -29 30 -44 24 -28 25 -28 151 -28 139 0 179 11 213 59
15 21 106 241 134 324 4 9 13 17 20 17 19 0 33 17 52 63 l15 37 -127 0 -126 0
20 -22 21 -23 -44 -105 c-24 -59 -41 -114 -38 -125 4 -14 2 -16 -4 -7 -6 9
-16 -6 -33 -50 l-25 -63 -48 -3 c-57 -4 -61 -24 35 213 38 93 69 173 69 177 0
4 -55 8 -121 8 l-121 0 26 -34z m166 -436 c0 -5 -4 -10 -10 -10 -5 0 -10 5
-10 10 0 6 5 10 10 10 6 0 10 -4 10 -10z"/>
<path d="M3109 4217 c-33 -22 -65 -74 -90 -150 -12 -35 -11 -39 18 -75 30 -37
31 -37 112 -40 44 -2 81 -7 81 -12 0 -5 -7 -27 -16 -49 -14 -36 -19 -39 -60
-43 -43 -3 -45 -2 -41 20 4 22 3 23 -75 20 l-79 -3 -24 -60 c-14 -33 -25 -66
-25 -72 0 -10 41 -13 171 -13 232 0 235 2 297 152 35 85 41 133 16 142 -9 3
-60 6 -115 6 -108 0 -107 -1 -85 60 10 27 20 36 42 40 48 9 76 1 68 -22 -5
-18 -1 -19 67 -16 l72 3 28 68 28 67 -178 0 c-168 0 -180 -1 -212 -23z"/>
<path d="M1514 3593 c-30 -31 -34 -39 -19 -41 16 -4 85 53 85 70 0 19 -31 5
-66 -29z"/>
<path d="M1598 3593 l-32 -33 40 0 c31 0 46 6 67 28 35 36 34 42 -8 40 -25 -1
-43 -10 -67 -35z"/>
<path d="M3340 3622 c0 -4 252 -259 560 -567 308 -307 557 -561 554 -564 -2
-4 -276 -278 -607 -610 l-602 -603 45 6 c43 6 58 19 317 278 182 182 268 275
260 280 -12 7 -2 12 17 9 15 -3 425 412 419 423 -3 6 -2 7 2 3 5 -4 60 43 122
105 l113 113 -567 567 c-518 518 -571 568 -600 568 -18 0 -33 -3 -33 -8z m710
-1592 c0 -5 -2 -10 -4 -10 -3 0 -8 5 -11 10 -3 6 -1 10 4 10 6 0 11 -4 11 -10z"/>
<path d="M3460 3623 c0 -18 797 -803 816 -804 12 0 14 -3 5 -6 -9 -4 7 -26 50
-69 34 -35 67 -60 73 -57 6 3 7 2 3 -2 -4 -5 33 -50 83 -100 l90 -91 -264
-264 c-146 -145 -263 -267 -260 -272 3 -4 -5 -12 -18 -17 -13 -5 -167 -154
-343 -330 -262 -263 -315 -321 -295 -321 19 0 153 128 622 598 329 328 598
602 598 607 0 17 -1113 1123 -1137 1130 -13 3 -23 3 -23 -2z"/>
<path d="M2095 3584 c-119 -18 -260 -46 -265 -53 -3 -4 -18 -7 -35 -7 -16 0
-82 -2 -145 -4 l-115 -3 107 -7 c60 -3 113 -11 118 -16 7 -7 27 -3 63 15 49
25 60 26 197 25 204 -2 569 -58 943 -145 145 -34 94 -30 -88 7 -353 71 -678
114 -859 114 -149 0 -216 -24 -216 -76 l0 -23 35 23 c63 43 274 43 477 1 38
-8 71 -15 74 -15 2 0 4 -5 4 -11 0 -6 -7 -8 -17 -5 -30 12 -276 46 -330 46
l-53 0 2 -97 c2 -97 2 -97 5 -20 5 102 15 110 128 95 44 -5 87 -14 95 -18 16
-9 -78 -5 -140 5 -24 4 -40 2 -47 -7 -8 -9 -8 -79 -2 -243 7 -152 7 -238 0
-255 -8 -21 -10 -16 -12 35 -9 282 -16 226 -12 -100 3 -220 6 -401 7 -402 1
-1 37 94 80 210 134 361 267 700 272 694 8 -7 -142 -421 -280 -775 -52 -134
-87 -265 -73 -278 3 -3 51 11 107 31 84 31 100 40 93 54 -4 9 -8 48 -7 86 1
56 12 101 53 225 29 85 57 160 63 165 13 13 6 -14 -59 -229 -40 -133 -52 -187
-47 -213 3 -18 9 -35 13 -38 4 -2 43 7 87 21 69 22 91 24 174 19 104 -6 1292
-46 1349 -45 20 0 123 -3 229 -6 l194 -7 69 69 69 68 -25 26 -24 25 -453 -17
c-505 -18 -563 -24 -613 -62 -18 -14 -36 -26 -39 -26 -11 0 -6 106 6 118 9 9
73 12 225 12 164 0 213 3 213 13 0 8 3 8 9 -2 8 -12 67 -15 323 -19 l313 -4
-35 35 -35 35 -285 5 c-157 3 -532 11 -835 18 l-550 12 -78 -26 c-88 -31 -140
-61 -204 -120 -25 -23 -44 -35 -42 -26 2 8 22 79 44 157 l40 142 30 0 c17 0
113 -7 215 -15 102 -8 248 -19 325 -25 77 -5 313 -23 525 -39 212 -17 423 -33
470 -36 47 -3 135 -10 195 -15 138 -12 130 -13 116 4 -12 15 -56 22 -181 31
-128 10 -180 18 -187 28 -4 6 -6 27 -5 47 1 19 -2 42 -8 50 -7 11 -10 -1 -10
-42 0 -49 -3 -58 -17 -58 -45 0 -449 43 -454 49 -8 7 -33 450 -27 457 3 2 58
-5 124 -17 237 -41 264 -45 264 -42 0 15 -81 74 -110 79 -19 4 -44 8 -55 11
-11 2 -78 15 -149 28 -122 24 -132 27 -158 59 -15 18 -40 38 -55 44 -15 6
-232 52 -482 102 -424 86 -552 105 -626 94z m308 -217 c3 -8 2 -19 -3 -26 -5
-9 -9 -4 -12 13 -5 27 6 36 15 13z m223 -13 l91 -16 7 -60 c10 -102 8 -160 -6
-151 -22 13 -151 2 -180 -15 -16 -9 -28 -19 -28 -23 0 -18 -72 -51 -98 -46
-27 5 -28 3 -51 -75 -12 -44 -21 -82 -19 -84 3 -2 56 -11 119 -19 108 -13 110
-14 29 -9 -117 7 -160 14 -160 29 0 10 67 247 121 429 20 68 20 68 52 62 18
-3 73 -13 123 -22z m291 -49 c81 -14 202 -35 268 -46 66 -12 124 -25 129 -29
11 -11 25 -195 25 -344 l1 -119 -72 7 c-40 4 -170 17 -288 29 l-215 22 -12
205 c-16 287 -16 300 1 300 8 0 81 -11 163 -25z m-637 -386 c-97 -309 -123
-422 -115 -492 5 -50 3 -61 -12 -73 -10 -7 -22 -14 -27 -14 -5 0 -6 44 -3 98
5 89 12 117 92 347 118 340 117 337 122 332 2 -3 -23 -92 -57 -198z m462 54
c2 -76 3 -139 2 -141 -1 -2 -40 1 -85 7 l-84 10 78 -4 78 -4 -3 135 c-2 74 0
134 4 134 3 0 8 -62 10 -137z"/>
<path d="M2768 2964 c2 -66 7 -122 11 -125 3 -4 110 -16 236 -28 127 -13 249
-25 273 -28 l42 -6 0 76 c0 70 -2 77 -27 97 -18 14 -34 19 -48 15 -37 -12 -55
-7 -116 34 -69 46 -88 50 -114 21 -27 -30 -69 -25 -129 15 -52 35 -86 44 -86
25 0 -16 -22 -12 -35 6 -9 13 -10 -10 -7 -102z"/>
<path d="M1470 3500 c20 -7 15 -9 -27 -7 -28 1 -49 -1 -47 -4 2 -4 -22 -10
-54 -14 -121 -14 -374 -91 -439 -133 -24 -15 -52 -82 -83 -196 -31 -113 -50
-200 -41 -190 4 5 20 61 35 124 35 142 47 174 80 195 36 24 153 53 264 67 50
6 92 14 92 17 0 3 97 6 216 6 l216 0 20 -25 c19 -23 21 -56 6 -120 -2 -7 2
-14 8 -17 9 -3 55 113 59 147 0 3 6 14 12 25 8 15 8 30 -3 60 -7 22 -14 41
-14 42 -1 9 -80 20 -150 22 -47 1 -105 3 -130 6 -36 4 -40 3 -20 -5z m245 -77
c-18 -42 -32 -60 -41 -51 -5 6 42 88 51 88 3 0 -2 -17 -10 -37z"/>
<path d="M1892 3440 c-18 -4 -44 -18 -57 -30 -36 -33 -76 -153 -82 -240 -2
-43 -10 -79 -17 -85 -10 -8 -40 -144 -33 -151 4 -4 207 -24 243 -24 l34 0 -6
248 c-3 136 -7 257 -10 270 -5 23 -16 25 -72 12z m-41 -72 c-11 -18 -25 -60
-31 -93 -23 -117 -62 -276 -67 -272 -4 5 21 149 42 237 7 30 16 67 19 81 5 23
41 79 51 79 3 0 -4 -15 -14 -32z"/>
<path d="M1523 3210 c-54 -11 -80 -25 -121 -64 -40 -37 -62 -76 -61 -108 0
-15 5 -8 14 21 26 82 100 135 203 145 29 2 50 1 47 -3 -2 -5 -30 -11 -61 -14
-60 -6 -123 -41 -152 -85 -18 -28 -41 -122 -44 -182 -1 -40 -2 -38 -8 20 -6
60 -7 57 -6 -30 l1 -95 29 -3 c57 -7 71 4 90 65 10 32 33 95 52 141 39 95 39
92 18 92 -10 0 -12 4 -7 13 4 6 8 17 8 22 0 6 11 11 25 12 23 2 23 2 5 -6 -16
-8 -9 -10 28 -10 27 -1 65 -10 87 -21 59 -30 70 -27 70 20 0 35 -4 41 -33 53
-45 19 -133 27 -184 17z m-73 -285 c-10 -33 -19 -53 -19 -44 -1 18 30 112 35
107 2 -2 -5 -31 -16 -63z"/>
<path d="M1582 3103 c-6 -15 -16 -46 -22 -68 -7 -22 -18 -53 -25 -70 -29 -64
-60 -304 -37 -281 4 4 13 22 19 39 11 27 12 9 12 -123 -2 -253 -2 -250 21
-250 11 0 22 6 25 13 2 6 9 107 15 222 6 116 14 220 17 233 4 17 1 22 -16 22
-20 0 -46 32 -35 43 4 3 8 34 9 69 2 35 11 87 19 117 17 58 16 80 -2 34z"/>
<path d="M1665 3101 c-21 -34 -52 -320 -61 -556 -4 -124 -10 -184 -19 -194
-10 -10 -87 -15 -341 -22 -181 -4 -391 -8 -466 -9 -130 0 -138 1 -138 19 0 11
18 86 40 168 44 167 92 381 88 395 -2 5 -20 -64 -40 -154 -21 -90 -53 -223
-73 -296 -28 -108 -35 -155 -37 -245 l-3 -111 35 -8 c53 -13 570 -22 695 -13
61 5 101 10 90 13 -53 11 -69 55 -59 163 l7 69 74 0 75 0 -8 -92 c-3 -51 -11
-101 -16 -110 -11 -22 -5 -22 59 -3 l50 15 7 127 c16 305 60 742 82 815 6 19
-31 45 -41 29z m-889 -892 c57 -13 137 -22 189 -23 99 0 299 12 330 21 13 3
17 2 10 -5 -9 -9 -103 -31 -198 -47 -88 -14 -211 -6 -301 20 -76 22 -154 53
-135 55 3 0 50 -10 105 -21z"/>
<path d="M575 3069 c-21 -5 -13 -7 30 -4 57 4 58 4 20 -6 -150 -38 -166 -48
-211 -143 -36 -75 -44 -77 -19 -5 22 61 61 108 109 130 22 10 35 19 27 19 -8
0 -33 -11 -57 -25 -49 -29 -83 -90 -109 -193 -15 -58 -15 -65 -1 -88 21 -30
61 -32 77 -3 8 15 8 19 0 15 -8 -5 -8 0 0 18 7 14 15 23 20 21 9 -6 30 55 32
94 2 20 16 40 51 70 l50 43 70 -4 c39 -3 78 -8 87 -12 13 -6 18 1 26 33 10 36
9 40 -11 45 -30 8 -155 5 -191 -5z m-35 -82 c0 -2 -9 -12 -20 -22 -24 -21 -27
-14 -4 9 15 15 24 20 24 13z"/>
<path d="M3826 2995 c11 -132 24 -174 18 -55 -3 58 -10 112 -15 120 -6 10 -7
-14 -3 -65z"/>
<path d="M3681 2980 c-65 -86 -90 -106 -142 -115 -22 -4 -61 -19 -86 -33 -27
-15 -48 -21 -50 -15 -2 5 -10 19 -18 29 -13 17 -14 15 -15 -28 l0 -48 43 0
c23 0 96 -6 162 -14 66 -8 151 -17 189 -21 l69 -6 -5 88 c-5 79 -10 97 -44
161 -22 39 -41 72 -44 72 -3 0 -29 -32 -59 -70z"/>
<path d="M808 2933 c-15 -27 -37 -103 -52 -173 -15 -69 -44 -192 -65 -273
l-39 -147 236 0 c131 0 294 3 363 7 l127 6 6 73 c11 116 53 311 100 467 8 26
12 47 7 47 -4 0 -15 -26 -25 -57 -25 -80 -30 -84 -95 -83 -31 1 -67 -2 -81 -5
-18 -5 -41 1 -74 19 -91 48 -124 35 -186 -76 -21 -39 -38 -58 -51 -58 -42 0
-113 138 -125 245 -4 30 -10 55 -14 55 -4 0 -18 -21 -32 -47z"/>
<path d="M1696 2888 c-5 -23 -29 -259 -40 -388 -8 -97 -19 -360 -15 -360 2 0
51 18 109 41 58 22 130 49 160 61 30 11 61 28 68 37 10 12 12 57 9 201 -4 198
-14 368 -22 380 -3 5 1 11 7 14 7 3 3 3 -9 1 -12 -3 -24 -2 -27 4 -3 5 -50 12
-104 16 -53 4 -105 9 -114 11 -12 4 -19 -2 -22 -18z m14 -281 c-11 -123 -20
-251 -20 -283 0 -33 -5 -66 -11 -74 -16 -24 7 346 33 517 20 135 19 68 -2
-160z"/>
<path d="M3974 2851 c-33 -51 -51 -57 -81 -30 l-23 22 0 -57 c0 -36 4 -58 13
-61 6 -2 81 -10 165 -17 l153 -14 -98 98 c-54 54 -99 98 -100 98 -2 0 -14 -18
-29 -39z"/>
<path d="M547 2628 l-128 -131 83 -84 c60 -60 84 -79 86 -67 3 10 -21 41 -57
78 -34 34 -61 66 -61 71 0 5 50 59 110 120 95 96 131 147 103 144 -5 0 -66
-59 -136 -131z"/>
<path d="M582 2577 l-81 -82 49 -49 49 -49 7 27 c4 16 1 37 -6 52 -12 22 -11
27 14 53 23 24 62 118 53 127 -2 2 -40 -34 -85 -79z"/>
<path d="M2295 2365 c-186 -67 -285 -110 -285 -122 0 -10 28 -13 118 -15 89
-1 462 0 571 2 10 0 12 16 9 69 -2 39 -7 73 -11 78 -5 4 -81 9 -170 10 -152 3
-166 2 -232 -22z"/>
<path d="M2724 2055 l-1 -325 46 1 c25 0 62 3 81 7 40 8 38 0 41 161 1 87 -2
115 -12 122 -11 7 -10 9 4 9 15 0 17 13 17 123 0 67 -3 146 -6 175 l-7 52 -81
0 -81 0 -1 -325z"/>
<path d="M2912 2104 c-1 -152 -5 -292 -8 -311 -5 -28 -3 -33 13 -33 11 0 47
-2 79 -4 42 -3 48 -2 19 3 -32 5 -17 8 72 15 90 6 111 10 106 22 -3 8 1 14 11
14 9 0 16 -4 16 -9 0 -11 430 -8 448 3 9 5 12 76 12 277 l0 269 -57 1 c-32 1
-75 3 -96 4 -22 1 -159 5 -305 9 -147 4 -277 10 -288 12 -21 5 -21 5 -22 -272z
m688 -174 c0 -5 -2 -10 -4 -10 -3 0 -8 5 -11 10 -3 6 -1 10 4 10 6 0 11 -4 11
-10z m-270 -104 c0 -3 -4 -8 -10 -11 -5 -3 -10 -1 -10 4 0 6 5 11 10 11 6 0
10 -2 10 -4z m288 -23 c-10 -2 -26 -2 -35 0 -10 3 -2 5 17 5 19 0 27 -2 18 -5z"/>
<path d="M3692 2087 c-1 -144 2 -268 6 -274 5 -9 35 14 92 72 l83 84 -6 182
c-5 131 -10 185 -19 191 -7 4 -45 8 -84 8 l-71 0 -1 -263z m155 1 c-3 -8 -6
-5 -6 6 -1 11 2 17 5 13 3 -3 4 -12 1 -19z"/>
<path d="M3880 2285 c0 -50 2 -55 23 -56 12 0 68 -1 125 -2 l103 -2 50 51 50
51 -62 7 c-34 3 -113 6 -175 6 l-114 0 0 -55z"/>
<path d="M1865 2199 c-66 -27 -144 -56 -172 -66 l-53 -17 -1 -120 c-2 -136 2
-340 6 -344 3 -3 339 19 343 23 8 8 14 562 6 567 -5 3 -63 -17 -129 -43z
m-180 -467 c3 -12 20 -31 38 -42 l32 -20 -52 0 -53 0 1 163 2 162 13 -120 c8
-66 16 -130 19 -143z m42 122 c-3 -3 -12 -4 -19 -1 -8 3 -5 6 6 6 11 1 17 -2
13 -5z m238 -154 c-11 -13 -30 -20 -49 -19 l-31 2 35 6 c31 5 35 10 39 41 3
33 4 34 14 12 8 -17 6 -26 -8 -42z"/>
<path d="M2020 2137 c0 -41 -3 -161 -7 -268 l-6 -194 45 3 c42 4 46 2 52 -22
7 -29 68 -101 100 -118 12 -7 53 -13 91 -14 73 -3 74 -1 19 34 -21 14 -63 78
-69 107 -6 29 -6 29 10 -5 62 -134 179 -175 274 -94 57 49 83 110 91 213 l7
86 2 -72 1 -73 39 0 c34 0 38 3 34 20 -3 11 -10 20 -17 20 -6 0 -5 4 3 9 12 7
15 53 19 225 l5 216 -347 0 -346 0 0 -73z m616 -32 c32 -36 53 -81 31 -68 -7
4 -8 0 -3 -12 4 -11 9 -40 12 -65 3 -38 2 -36 -10 17 -19 82 -43 121 -88 144
-44 23 -127 25 -166 5 -53 -28 -103 -104 -117 -179 -4 -20 -11 -35 -15 -32 -4
2 -5 -7 -2 -20 2 -14 0 -25 -6 -25 -13 0 -20 -89 -7 -94 6 -3 6 -8 -1 -13 -7
-4 -14 -19 -15 -33 -4 -23 -9 -26 -79 -33 -87 -8 -129 -4 -55 7 28 3 66 10 85
14 l35 7 6 85 c8 119 55 270 79 255 5 -3 16 5 25 19 27 40 66 59 135 66 85 8
118 -2 156 -45z m-593 -139 c-3 -115 -7 -149 -15 -135 -2 2 -1 74 1 159 2 86
7 144 11 130 4 -14 5 -83 3 -154z m477 -33 c89 -90 65 -273 -43 -318 -40 -17
-74 -8 -113 31 -72 73 -72 218 1 291 27 27 41 33 75 33 36 0 48 -6 80 -37z
m-330 -289 c11 -26 37 -63 58 -82 20 -19 28 -31 17 -25 -38 21 -105 110 -105
141 0 23 9 12 30 -34z"/>
<path d="M2344 1865 c-29 -70 -4 -188 44 -214 32 -17 33 -13 2 17 -40 41 -56
121 -37 185 17 55 12 62 -9 12z"/>
<path d="M2423 1839 c-4 -16 -8 -17 -14 -7 -6 8 -9 -6 -9 -37 0 -40 4 -53 21
-63 26 -17 38 -7 45 39 10 60 -29 122 -43 68z"/>
<path d="M2543 1790 c0 -30 2 -43 4 -27 2 15 2 39 0 55 -2 15 -4 2 -4 -28z"/>
<path d="M3890 2096 l0 -111 110 110 c61 60 110 110 110 111 0 0 -49 1 -110 1
l-110 0 0 -111z"/>
<path d="M1530 2078 c-103 -30 -387 -43 -650 -29 -118 6 -228 14 -245 17 l-30
5 26 -17 c35 -23 51 -51 55 -97 3 -37 2 -39 -19 -32 -67 21 -69 20 -65 -16 3
-30 7 -35 38 -40 l35 -6 -32 -2 c-32 -1 -33 -2 -33 -45 0 -67 17 -103 53 -115
40 -13 229 -27 547 -42 225 -10 247 -13 268 -32 17 -15 38 -21 88 -24 36 -1
69 -5 75 -8 5 -4 9 -2 9 2 0 5 28 8 63 8 44 0 71 5 91 18 15 10 25 21 23 24
-3 2 -51 1 -106 -2 -88 -7 -99 -9 -84 -21 10 -7 13 -14 7 -14 -6 0 -17 7 -24
15 -7 8 -29 15 -48 15 -34 0 -35 -1 -16 -15 10 -8 14 -15 8 -15 -6 0 -19 9
-29 20 -18 20 -17 20 34 20 l52 0 -3 93 c-2 66 -6 91 -15 90 -7 -2 -89 -8
-183 -15 -134 -9 -213 -9 -368 1 -192 12 -402 37 -332 39 19 1 64 -3 100 -8
161 -23 389 -31 567 -20 98 6 190 13 206 16 l27 6 0 124 c0 93 -3 124 -12 123
-7 -1 -42 -10 -78 -21z m76 -33 c12 -30 -9 -71 -60 -121 -51 -50 -111 -77
-125 -58 -6 10 -14 11 -103 21 -61 6 -65 11 -46 46 31 59 94 95 197 112 104
18 131 18 137 0z m-806 -66 c41 -5 159 -10 263 -10 103 0 187 -3 187 -7 -1 -4
-11 -25 -23 -46 l-23 -39 -84 2 c-196 6 -389 17 -395 23 -11 10 -18 88 -9 88
5 0 43 -5 84 -11z m780 -49 c0 -5 -5 -10 -11 -10 -5 0 -7 5 -4 10 3 6 8 10 11
10 2 0 4 -4 4 -10z m-594 -186 c82 -9 213 -17 292 -18 160 -1 155 -13 -7 -15
-100 -1 -374 21 -476 38 l-50 9 46 1 c26 0 113 -6 195 -15z"/>
<path d="M636 1973 c-6 -14 -5 -15 5 -6 7 7 10 15 7 18 -3 3 -9 -2 -12 -12z"/>
<path d="M3453 1783 c9 -2 25 -2 35 0 9 3 1 5 -18 5 -19 0 -27 -2 -17 -5z"/>
<path d="M3298 1773 c12 -2 32 -2 45 0 12 2 2 4 -23 4 -25 0 -35 -2 -22 -4z"/>
<path d="M3451 1771 c-85 -7 -102 -23 -47 -46 41 -17 77 -12 119 17 28 20 36
39 15 36 -7 -1 -46 -4 -87 -7z"/>
<path d="M3138 1763 c18 -2 45 -2 60 0 15 2 0 4 -33 4 -33 0 -45 -2 -27 -4z"/>
<path d="M3250 1751 c0 -20 33 -34 87 -36 l57 -4 -30 24 c-16 13 -38 24 -48
25 -19 0 -19 0 0 -21 19 -22 19 -22 -3 -10 -12 6 -25 16 -28 21 -8 12 -35 13
-35 1z"/>
<path d="M2908 1743 c7 -3 16 -2 19 1 4 3 -2 6 -13 5 -11 0 -14 -3 -6 -6z"/>
<path d="M3560 1715 c-23 -19 -52 -37 -64 -40 -35 -7 -226 -11 -226 -3 0 3
-16 15 -35 27 -34 20 -42 20 -158 11 -67 -6 -156 -13 -197 -16 -41 -3 -77 -10
-81 -16 -6 -9 -11 -9 -22 0 -10 9 -33 10 -70 6 -51 -6 -57 -9 -67 -38 -17 -49
-57 -101 -106 -135 l-44 -32 -143 3 c-138 3 -145 4 -186 31 -23 16 -55 49 -69
73 l-27 45 -95 -6 c-86 -6 -100 -10 -147 -41 -51 -34 -52 -34 -171 -34 -113 0
-123 2 -176 29 -55 29 -61 30 -284 41 -254 12 -486 28 -518 36 -29 7 -40 -23
-18 -48 34 -37 192 -104 324 -138 207 -52 1194 -115 1662 -106 276 5 343 12
407 44 44 21 50 46 20 78 -12 13 -20 27 -16 30 4 4 92 9 196 12 l189 5 108
108 c97 97 106 109 82 109 -15 0 -43 -14 -68 -35z m-580 -225 c-23 -17 -50
-17 -50 1 0 4 6 6 13 3 7 -2 21 2 32 10 11 8 22 12 25 9 3 -2 -6 -13 -20 -23z
m-430 -100 c0 -5 -5 -10 -11 -10 -5 0 -7 5 -4 10 3 6 8 10 11 10 2 0 4 -4 4
-10z"/>
<path d="M3555 1369 l-70 -70 35 5 c19 3 94 13 165 21 289 34 432 62 414 79
-5 6 -366 36 -428 36 -44 0 -50 -3 -116 -71z"/>
<path d="M978 1411 c-65 -7 -82 -17 -41 -25 58 -12 224 -36 383 -55 91 -12
181 -24 200 -27 l35 -6 -34 36 c-38 40 -26 37 -286 61 -93 9 -177 17 -185 19
-8 1 -41 0 -72 -3z"/>
<path d="M774 1380 c-12 -5 -24 -19 -27 -32 -25 -99 -107 -574 -102 -589 10
-29 27 -35 200 -63 317 -51 579 -83 932 -112 242 -20 1103 -31 1103 -14 0 6 5
8 11 4 63 -38 1401 107 1487 162 14 9 22 24 22 42 0 15 -21 131 -46 257 -25
127 -48 244 -50 260 -11 65 -15 76 -37 84 -14 6 -53 3 -102 -5 -300 -53 -714
-102 -1060 -126 -231 -16 -925 -16 -1165 0 -378 26 -802 77 -1125 137 -11 2
-30 -1 -41 -5z m146 -45 c249 -44 666 -93 995 -117 222 -16 986 -16 1215 0
338 25 814 82 1040 126 57 11 78 12 87 3 6 -7 35 -137 63 -291 43 -232 50
-281 38 -291 -25 -25 -575 -106 -913 -135 -703 -61 -1424 -52 -2090 26 -303
35 -655 92 -672 108 -10 9 -2 68 37 281 28 149 55 280 60 293 7 17 16 21 32
17 13 -2 61 -11 108 -20z"/>
<path d="M3973 1256 c-72 -11 -134 -24 -138 -27 -3 -4 9 -19 27 -34 l32 -27
-42 -166 c-39 -150 -47 -170 -88 -223 -53 -70 -64 -67 142 -39 245 33 255 36
290 74 29 30 63 130 50 143 -3 3 -36 0 -75 -7 -67 -11 -70 -13 -81 -45 -10
-30 -16 -35 -56 -41 -25 -3 -47 -4 -50 -1 -10 10 72 301 87 305 15 5 29 22 29
35 0 5 -4 5 -10 2 -5 -3 -10 3 -10 14 0 14 5 19 15 15 11 -5 15 1 15 20 0 14
-1 25 -2 25 -2 -1 -62 -11 -135 -23z m197 -381 c0 -19 -24 -30 -41 -19 -9 5
-7 11 6 21 24 17 35 17 35 -2z"/>
<path d="M1095 1186 c-54 -85 -54 -82 15 -90 56 -7 63 -5 82 16 17 19 52 26
66 13 3 -2 -53 -95 -132 -221 -28 -43 -55 -71 -99 -99 -33 -22 -56 -40 -51
-42 5 -1 60 -9 123 -18 129 -17 179 -10 205 30 22 33 20 43 -9 47 -24 3 -23 6
55 143 43 77 83 140 89 139 6 -1 21 -2 32 -2 20 -2 20 -3 6 -26 -16 -23 -15
-24 21 -30 82 -13 101 -9 119 29 9 19 21 35 26 35 5 0 -9 -33 -31 -72 -22 -40
-60 -111 -85 -158 -38 -69 -57 -93 -102 -125 l-56 -40 33 -7 c18 -3 74 -10
124 -13 98 -8 124 -1 156 39 25 30 22 46 -7 46 l-25 0 26 50 c14 28 30 50 35
50 6 0 27 -9 49 -20 l39 -20 -44 -77 c-30 -55 -40 -80 -32 -85 7 -4 54 -8 105
-8 94 0 94 0 128 34 40 40 43 56 9 56 -29 0 -29 0 -13 35 10 23 8 29 -21 59
l-32 33 40 7 c52 8 90 47 120 125 l24 62 -39 39 -39 38 -134 9 c-104 6 -135 5
-138 -4 -7 -17 -33 -17 -33 0 0 9 -66 20 -242 41 -134 16 -262 31 -285 33 -41
5 -42 5 -78 -51z m795 -141 c0 -9 -7 -30 -16 -47 -15 -28 -18 -30 -57 -24 -23
4 -43 9 -46 12 -2 2 3 20 12 39 15 32 20 35 62 35 34 0 45 -4 45 -15z"/>
<path d="M3585 1204 c-104 -13 -214 -24 -242 -24 -29 -1 -53 -4 -53 -8 0 -4
-35 -8 -77 -8 -43 -1 -96 -2 -118 -3 l-39 -1 21 -22 22 -21 -39 -76 c-53 -104
-150 -278 -150 -268 0 4 20 78 44 165 25 86 48 172 51 191 7 32 6 34 -16 28
-13 -4 -68 -7 -122 -7 l-99 0 30 -40 30 -41 -18 -62 c-10 -34 -34 -123 -55
-197 -21 -74 -40 -141 -42 -147 -4 -10 23 -13 113 -13 152 0 189 15 245 104
22 34 42 72 46 86 3 13 10 29 15 35 5 5 33 53 61 105 39 71 58 96 77 100 18 4
27 15 33 43 11 47 21 47 59 1 17 -19 17 -23 -1 -80 -11 -32 -34 -106 -53 -163
-28 -89 -40 -113 -82 -158 l-48 -53 40 0 c67 0 345 30 384 42 48 14 81 51 102
112 9 27 16 51 16 53 0 5 -54 3 -103 -3 -40 -6 -47 -10 -52 -35 -8 -35 -8 -35
-68 -44 l-48 -7 7 38 c12 64 30 84 78 84 70 0 83 8 100 57 l16 46 -65 -7 c-72
-7 -72 -7 -55 55 8 30 16 38 41 43 61 12 72 9 65 -19 -6 -23 -4 -25 26 -24 18
0 51 3 72 7 39 7 40 8 58 77 9 39 18 73 18 78 0 9 1 9 -225 -19z m-104 -439
c-1 -12 -41 -16 -41 -4 0 8 21 18 33 15 5 -1 8 -6 8 -11z"/>
<path d="M2287 1136 c3 -6 15 -23 25 -39 l20 -27 -58 -83 c-144 -206 -192
-264 -240 -293 l-49 -29 50 -6 c28 -4 83 -8 122 -8 l73 -1 41 65 41 65 50 0
51 0 -6 -32 c-3 -18 -9 -48 -13 -65 l-6 -33 55 0 c31 0 59 5 63 11 4 8 9 7 15
-2 14 -24 80 1 107 41 l24 35 -26 3 c-32 4 -32 2 -4 175 21 137 21 137 48 137
22 0 29 6 38 39 7 21 12 43 12 50 0 17 -92 5 -102 -13 -5 -9 -14 -16 -20 -16
-7 0 -6 5 2 15 7 8 9 15 4 15 -5 0 -80 1 -166 3 -112 3 -155 1 -151 -7z m208
-66 c-3 -5 -12 -10 -18 -10 -7 0 -6 4 3 10 19 12 23 12 15 0z m-35 -111 c-11
-41 -20 -77 -20 -81 0 -11 -60 -10 -60 1 0 17 90 165 96 158 2 -2 -5 -37 -16
-78z m-84 36 c-3 -9 -11 -13 -16 -10 -8 5 -7 11 1 21 14 18 24 11 15 -11z
m114 -299 c0 -3 -4 -8 -10 -11 -5 -3 -10 -1 -10 4 0 6 5 11 10 11 6 0 10 -2
10 -4z"/>
<path d="M1585 1330 c21 -22 48 -40 60 -40 17 0 13 7 -22 40 -58 55 -91 55
-38 0z"/>
<path d="M1670 1326 c25 -25 48 -36 80 -41 l45 -6 -42 40 c-34 33 -49 41 -80
41 l-38 0 35 -34z"/>
<path d="M2450 465 l74 -75 68 67 c38 37 68 71 68 75 0 23 -40 2 -87 -44 l-53
-52 -53 52 c-29 29 -61 52 -72 52 -14 0 0 -20 55 -75z"/>
<path d="M2470 532 c0 -5 11 -19 25 -32 l25 -23 25 23 c14 13 25 26 25 29 0 3
-23 7 -50 9 -28 1 -50 -1 -50 -6z"/>
</g>
</svg>
