<?xml version="1.0" standalone="no"?>
<!DOCTYPE svg PUBLIC "-//W3C//DTD SVG 20010904//EN"
 "http://www.w3.org/TR/2001/REC-SVG-20010904/DTD/svg10.dtd">
<svg version="1.0" xmlns="http://www.w3.org/2000/svg"
 width="475.000000pt" height="117.000000pt" viewBox="0 0 475.000000 117.000000"
 preserveAspectRatio="xMidYMid meet">

<g transform="translate(0.000000,117.000000) scale(0.100000,-0.100000)"
fill="#ffffff" stroke="none">
<path d="M1250 1074 c-261 -23 -420 -50 -497 -84 -30 -13 -48 -30 -62 -58 -52
-101 -85 -316 -79 -512 l3 -114 40 -10 c50 -13 747 -13 828 0 l59 9 17 50 c59
168 158 304 231 319 52 10 170 7 170 -4 0 -6 -12 -34 -26 -63 -51 -99 -134
-291 -134 -307 0 -16 38 -40 63 -40 7 0 55 93 107 206 l95 205 41 -5 c47 -6
64 6 64 45 0 23 -5 27 -37 33 -21 3 -133 6 -250 6 l-212 0 -19 -27 c-22 -34
-64 -124 -82 -176 -26 -82 -21 -10 12 163 21 112 35 128 98 110 19 -6 123 -10
230 -10 l195 1 -40 25 c-89 55 -326 168 -425 202 -95 32 -117 36 -225 38 -66
1 -140 0 -165 -2z m190 -87 c14 -7 34 -30 44 -52 18 -36 19 -48 9 -144 -17
-161 -58 -258 -121 -283 -84 -32 -417 -48 -583 -27 -152 19 -156 24 -145 175
6 92 31 181 64 232 27 42 126 76 277 97 122 17 422 19 455 2z"/>
<path d="M870 867 c0 -12 278 -165 375 -206 64 -27 4 9 -135 81 -80 42 -166
88 -192 103 -27 15 -48 25 -48 22z"/>
<path d="M823 843 c13 -21 375 -218 384 -209 3 3 -31 23 -75 45 -77 39 -106
55 -189 103 -104 60 -126 71 -120 61z"/>
<path d="M2151 631 c-66 -131 -131 -286 -131 -312 0 -9 14 -22 31 -30 36 -14
39 -12 91 78 28 50 117 157 124 151 1 -2 -13 -34 -32 -72 -19 -38 -34 -81 -34
-96 0 -58 63 -79 114 -39 26 21 26 21 44 1 9 -11 27 -23 39 -27 19 -5 26 1 48
45 25 50 111 170 122 170 3 0 3 -10 -1 -23 -8 -34 19 -67 55 -67 26 0 29 -3
29 -34 0 -40 30 -81 65 -90 33 -8 91 17 132 56 18 18 34 30 35 27 2 -2 10 -17
18 -34 45 -87 144 -59 253 73 15 19 27 43 27 55 -1 19 -6 16 -38 -20 -51 -59
-101 -93 -134 -93 -24 0 -28 4 -28 28 0 24 5 29 43 39 51 14 124 77 132 114
10 41 -24 74 -75 73 -59 -2 -116 -45 -164 -124 -43 -71 -47 -76 -94 -109 -41
-29 -76 -25 -80 9 -3 23 2 27 42 38 57 15 136 87 136 124 0 26 -21 50 -54 62
-47 17 -134 -37 -192 -118 -12 -18 -23 -26 -27 -19 -4 6 7 30 23 54 l30 44
-26 23 c-14 12 -29 22 -34 22 -5 0 -39 -30 -76 -67 l-65 -68 23 48 c22 48 23
49 4 63 -24 17 -50 18 -63 2 -6 -7 -25 -42 -43 -78 -44 -85 -98 -160 -116
-160 -8 0 -14 3 -14 6 0 8 81 157 91 169 16 16 10 43 -13 59 -41 29 -67 20
-130 -42 -32 -33 -58 -57 -58 -55 0 2 25 54 55 115 30 61 55 112 55 115 0 4
-65 33 -75 33 -2 0 -32 -53 -64 -119z m719 -89 c0 -19 -72 -82 -93 -82 -12 0
8 32 39 63 26 26 54 36 54 19z m240 1 c0 -21 -72 -83 -95 -83 -12 0 17 46 43
67 27 23 52 30 52 16z"/>
<path d="M3695 715 c-61 -29 -81 -46 -129 -109 -53 -70 -79 -133 -84 -203 -4
-59 -3 -64 26 -93 42 -42 100 -42 165 0 40 25 46 27 37 10 -8 -14 -7 -25 2
-39 12 -20 51 -36 56 -23 1 4 24 52 51 107 l49 100 -5 -57 c-12 -129 84 -165
187 -70 22 20 53 44 69 54 35 19 86 92 76 108 -4 6 -22 -6 -45 -32 l-38 -43 5
61 c5 54 3 63 -19 89 -17 20 -34 28 -56 28 -41 0 -105 -43 -139 -95 l-28 -42
-3 28 -3 28 -77 -8 c-99 -9 -122 -17 -122 -46 0 -31 13 -50 31 -44 8 2 27 7
44 11 29 6 29 6 11 -14 -36 -39 -114 -83 -143 -79 -26 3 -28 7 -31 51 -3 38 3
59 30 110 40 76 135 177 166 177 30 0 38 -24 18 -55 -17 -26 -21 -55 -8 -55
16 0 53 33 67 60 49 94 -43 143 -160 85z m385 -180 c9 -11 9 -23 -2 -56 -17
-50 -40 -69 -65 -53 -28 17 -27 52 2 90 28 37 46 42 65 19z m-79 -168 c12 -5
12 -7 -1 -16 -22 -16 -60 -13 -66 4 -4 8 -3 26 0 40 l6 24 23 -23 c13 -13 30
-26 38 -29z"/>
<path d="M3313 719 c-38 -11 -83 -62 -83 -95 0 -27 32 -64 55 -64 10 0 15 11
15 35 0 56 63 100 109 75 26 -13 27 -36 2 -75 -28 -46 -122 -145 -200 -210
-39 -33 -71 -67 -71 -76 0 -35 23 -40 117 -29 48 6 111 10 138 9 44 -3 50 -1
53 18 5 36 -23 53 -89 53 l-59 0 62 53 c84 72 125 127 133 181 15 100 -68 158
-182 125z"/>
<path d="M620 182 c0 -76 9 -82 114 -82 l76 0 0 40 c0 48 -34 90 -73 90 -13 0
-45 3 -71 6 l-46 7 0 -61z"/>
<path d="M1324 226 c-56 -6 -109 -17 -118 -25 -18 -15 -22 -86 -5 -97 18 -11
255 -5 282 7 24 11 37 47 37 107 0 20 -4 22 -47 21 -27 -1 -94 -7 -149 -13z"/>
</g>
</svg>
